<?xml version="1.0" encoding="UTF-8" standalone="no"?>
<!-- Created with Inkscape (http://www.inkscape.org/) -->

<svg
   xmlns:dc="http://purl.org/dc/elements/1.1/"
   xmlns:cc="http://creativecommons.org/ns#"
   xmlns:rdf="http://www.w3.org/1999/02/22-rdf-syntax-ns#"
   xmlns:svg="http://www.w3.org/2000/svg"
   xmlns="http://www.w3.org/2000/svg"
   xmlns:sodipodi="http://sodipodi.sourceforge.net/DTD/sodipodi-0.dtd"
   xmlns:inkscape="http://www.inkscape.org/namespaces/inkscape"
   width="512"
   height="512"
   id="svg3039"
   version="1.1"
   inkscape:version="0.48.4 r9939"
   inkscape:export-filename="/home/ivomarsan/Ãrea de Trabalho/Link to projects/Ivomar Santos/img/icon-16.png"
   inkscape:export-xdpi="2.8125"
   inkscape:export-ydpi="2.8125"
   sodipodi:docname="Novo documento 4">
  <defs
     id="defs3041" />
  <sodipodi:namedview
     id="base"
     pagecolor="none"
     bordercolor="#666666"
     borderopacity="1.0"
     inkscape:pageopacity="0.0"
     inkscape:pageshadow="2"
     inkscape:zoom="0.35"
     inkscape:cx="235.71429"
     inkscape:cy="405.71429"
     inkscape:document-units="px"
     inkscape:current-layer="layer1"
     showgrid="false"
     inkscape:window-width="1301"
     inkscape:window-height="744"
     inkscape:window-x="65"
     inkscape:window-y="24"
     inkscape:window-maximized="1" />
  <metadata
     id="metadata3044">
    <rdf:RDF>
      <cc:Work
         rdf:about="">
        <dc:format>image/svg+xml</dc:format>
        <dc:type
           rdf:resource="http://purl.org/dc/dcmitype/StillImage" />
        <dc:title></dc:title>
      </cc:Work>
    </rdf:RDF>
  </metadata>
  <g
     inkscape:label="Camada 1"
     inkscape:groupmode="layer"
     id="layer1"
     transform="translate(0,-540.36218)">
    <g
       id="g4638"
       transform="matrix(1.3240071,0,0,1.3153091,-255.67029,-296.2364)">
      <g
         id="g4644">
        <path
           sodipodi:nodetypes="ssssssssscccsss"
           inkscape:connector-curvature="0"
           id="path3061"
           d="M 236.73369,999.60683 C 109.9629,979.64076 61.854641,883.87239 119.06766,765.37085 c 5.66466,-11.73284 10.90839,-24.21234 11.65273,-27.73223 1.55369,-7.34719 0.03,-7.12473 27.76676,-4.05389 9.87229,1.093 22.9209,1.98726 28.99694,1.98726 14.29475,0 12.64087,-3.09653 44.40418,83.13755 23.82102,64.67161 25.89332,68.15767 33.5604,56.45623 7.54563,-11.5161 4.94106,-24.13164 -9.28041,-44.95071 -73.6964,-107.8855 15.76631,-247.34636 136.12587,-212.20269 l 12.56616,3.66918 0,53.49917 0,53.49919 -7.36636,-1.32044 c -41.33239,-7.40888 -51.28961,17.19096 -25.69695,63.48569 62.27675,112.65289 -12.40186,228.08054 -135.06329,208.76167 z"
           style="fill:#ffffff;fill-opacity:1;stroke:#005fff"
           transform="translate(136.42857,23.571429)" />
        <path
           transform="matrix(1.733264,0,0,1.733264,-129.55491,335.39849)"
           d="m 284.26404,208.03716 c 0,17.00775 -13.78752,30.79527 -30.79527,30.79527 -17.00776,0 -30.79528,-13.78752 -30.79528,-30.79527 0,-17.00776 13.78752,-30.79528 30.79528,-30.79528 17.00775,0 30.79527,13.78752 30.79527,30.79528 z"
           sodipodi:ry="30.795271"
           sodipodi:rx="30.795271"
           sodipodi:cy="208.03716"
           sodipodi:cx="253.46877"
           id="path3946"
           style="fill:#ffffff;fill-opacity:1;stroke:#005fff"
           sodipodi:type="arc" />
        <path
           style="fill:#ffffff;fill-opacity:1;stroke:none"
           d="m 341.17795,928.88427 c -30.12343,8.07155 -32.96663,-0.67769 -39.63121,-88.03762 -9.12792,-119.64978 10.89041,-89.44495 33.40871,-5.40553 22.63182,84.46312 18.9369,80.72875 6.2225,93.44315 z"
           id="path3061-8-9"
           inkscape:connector-curvature="0"
           sodipodi:nodetypes="cscc" />
        <path
           style="fill:#005fff;fill-opacity:1;stroke:none"
           d="m 336.85989,916.55073 c 5.67412,-5.86908 10.71644,-10.67108 11.20512,-10.67108 0.48867,0 -3.32706,4.36917 -8.4794,9.70926 -5.15234,5.34008 -8.94503,10.14207 -8.4282,10.67108 0.51683,0.529 -0.30994,0.96184 -1.83724,0.96184 -1.6494,0 1.41197,-4.33283 7.53972,-10.6711 z m -15.48606,7.1191 c 0,-0.2767 6.2329,-6.65649 13.85088,-14.17731 l 13.85088,-13.67418 -13.35934,14.1773 c -12.40788,13.16757 -14.34242,15.01197 -14.34242,13.67419 z m 8.93604,-18.70484 c 8.31181,-8.55213 15.5145,-15.54931 16.00599,-15.54931 0.49148,0 -5.90697,6.99718 -14.21877,15.54931 -8.3118,8.55211 -15.5145,15.5493 -16.00598,15.5493 -0.49149,0 5.90697,-6.99719 14.21876,-15.5493 z m -2.68081,-6.40266 c 8.80572,-9.05518 16.4125,-16.46397 16.90398,-16.46397 0.49148,0 -6.31106,7.40879 -15.11677,16.46397 -8.80572,9.05519 -16.41248,16.46397 -16.90397,16.46397 -0.49148,0 6.31104,-7.40878 15.11676,-16.46397 z m -1.78721,-7.31732 c 8.80572,-9.05517 16.4125,-16.46396 16.90399,-16.46396 0.49147,0 -6.31106,7.40879 -15.11678,16.46396 -8.80572,9.05518 -16.41249,16.46397 -16.90397,16.46397 -0.49148,0 6.31104,-7.40879 15.11676,-16.46397 z m -1.78721,-7.31731 c 8.80572,-9.05519 16.4125,-16.46397 16.90398,-16.46397 0.49148,0 -6.31105,7.40878 -15.11677,16.46397 -8.80572,9.05517 -16.41249,16.46396 -16.90397,16.46396 -0.49148,0 6.31105,-7.40879 15.11676,-16.46396 z m -1.78721,-7.31732 c 8.80571,-9.05519 16.41249,-16.46397 16.90398,-16.46397 0.49149,0 -6.31105,7.40878 -15.11677,16.46397 -8.80571,9.05518 -16.41249,16.46397 -16.90397,16.46397 -0.49148,0 6.31106,-7.40879 15.11676,-16.46397 z m -0.8936,-8.23199 c 8.31179,-8.55211 15.51449,-15.5493 16.00597,-15.5493 0.49149,0 -5.90697,6.99719 -14.21876,15.5493 -8.31181,8.55213 -15.51448,15.54931 -16.00598,15.54931 -0.49148,0 5.90698,-6.99718 14.21877,-15.54931 z m -0.89361,-8.23198 c 7.8176,-8.04905 14.61595,-14.63463 15.10744,-14.63463 0.49148,0 -5.50263,6.58558 -13.32023,14.63463 -7.81759,8.04905 -14.61594,14.63464 -15.10743,14.63464 -0.49148,0 5.50263,-6.58559 13.32022,-14.63464 z m -4.86086,-3.75973 c 6.16908,-6.59543 10.78686,-12.43146 10.26174,-12.96896 -0.52512,-0.53749 0.57881,-2.39783 2.45317,-4.1341 10.97037,-10.16201 2.88342,2.55554 -9.28036,14.59428 -11.47419,11.35629 -12.21891,11.90028 -3.43455,2.50878 z m 14.9185,-15.90557 c 2.22306,-2.90141 2.15984,-2.96612 -0.67479,-0.69067 -1.72019,1.38087 -3.12762,2.82147 -3.12762,3.20133 0,1.5056 1.46765,0.53655 3.80241,-2.51066 z m -20.27711,12.22771 c 3.19787,-3.58761 5.41489,-6.93176 4.92673,-7.43142 -0.48815,-0.49966 2.62071,-4.43274 6.9086,-8.74016 4.28792,-4.30742 8.2524,-7.07613 8.80997,-6.15269 0.5576,0.92347 -5.16772,7.79185 -12.72291,15.26311 -7.5552,7.47125 -11.12027,10.64876 -7.92239,7.06116 z m 13.79389,-14.51436 c 3.83936,-4.02452 6.57855,-7.31731 6.08706,-7.31731 -0.49149,0 -4.03492,3.29279 -7.87427,7.31731 -3.83937,4.02451 -6.57854,7.31732 -6.08707,7.31732 0.49149,0 4.03493,-3.29281 7.87428,-7.31732 z m -18.08928,8.46431 c 0.24313,-1.69556 4.70975,-7.50606 9.92581,-12.91222 6.11474,-6.33757 8.99244,-10.64312 8.10069,-12.12003 -0.95369,-1.57946 -0.65677,-1.83116 0.95638,-0.81068 1.55967,0.98662 1.90841,0.76599 1.04625,-0.66187 -0.71127,-1.17799 -2.05502,-1.65991 -2.9861,-1.0709 -0.93108,0.58898 -1.31478,1.69708 -0.85266,2.46242 0.46212,0.76534 -3.49256,5.77132 -8.78815,11.12439 -9.17833,9.27794 -13.26068,8.66241 -4.66462,-0.7033 2.26012,-2.4625 3.58115,-5.35195 2.93563,-6.42106 -0.69097,-1.14435 -0.14173,-1.53844 1.3356,-0.95821 1.47236,0.57832 3.88206,-1.13121 5.83133,-4.13692 6.00452,-9.25877 4.25325,-10.3549 -3.73038,-2.33491 -4.3142,4.33385 -7.4856,8.4733 -7.04757,9.19878 0.43804,0.72544 -0.2802,2.23357 -1.59609,3.35141 -1.94897,1.65564 -2.34431,0.33751 -2.13244,-7.11003 0.15067,-5.29731 -0.52603,-9.15424 -1.60902,-9.17047 -1.22674,-0.0185 -1.25489,-0.48991 -0.0819,-1.372 0.98297,-0.73919 1.78722,-2.57879 1.78722,-4.08799 0,-1.50919 -0.80425,-3.34878 -1.78722,-4.08798 -1.09752,-0.82534 -0.90083,-1.35478 0.50969,-1.372 1.61095,-0.0196 1.81369,-0.98404 0.67889,-3.22932 -2.31526,-4.58087 -1.16065,-9.33964 3.49737,-14.41475 5.76175,-6.27764 6.28191,-11.55609 0.60037,-6.09279 -2.3554,2.26494 -3.85775,4.8216 -3.33854,5.68147 0.5192,0.85988 0.006,1.56341 -1.1399,1.56341 -1.30015,0 -1.58342,-1.20404 -0.75319,-3.20131 0.7319,-1.76074 1.42115,-6.63148 1.53163,-10.82388 0.23828,-9.04112 2.03273,-11.71721 3.87438,-5.77795 0.72546,2.33962 1.13232,4.57342 0.90414,4.964 -0.2282,0.39056 0.60252,1.35374 1.84601,2.14037 2.08751,1.32056 3.32693,4.70889 3.80863,10.41212 0.1062,1.25766 0.99736,2.28665 1.98033,2.28665 0.98297,0 1.25803,0.54167 0.61125,1.20369 -0.64678,0.66204 -0.34833,2.22443 0.66322,3.47201 1.01158,1.24759 2.21097,3.99874 2.66532,6.11365 0.45437,2.11492 1.29281,5.69748 1.86322,7.96129 0.57041,2.2638 1.10659,5.14498 1.19149,6.40266 0.0849,1.25765 0.87201,2.28666 1.74916,2.28666 0.87717,0 1.13212,0.76632 0.5666,1.70291 -0.56554,0.93663 -0.26206,2.18764 0.6744,2.78002 3.84853,2.43457 0.55816,8.90517 -9.94844,19.56378 -6.17607,6.26545 -10.92428,9.91099 -10.67878,8.19888 z m 11.83403,-11.20831 c 5.33917,-5.53372 9.30545,-10.06131 8.81395,-10.06131 -0.49147,0 -5.26199,4.52759 -10.60115,10.06131 -5.33914,5.53373 -9.30542,10.06132 -8.81394,10.06132 0.49148,0 5.26201,-4.52759 10.60114,-10.06132 z m 3.57444,-13.18618 c 0,-1.37361 -1.60462,0.0787 -9.01074,8.15552 l -7.96776,8.68932 8.48925,-8.15554 c 4.66908,-4.48553 8.48925,-8.39571 8.48925,-8.6893 z m -0.59574,-16.24639 c 0,-1.68125 -2.88411,0.1533 -7.4467,4.73663 -4.09571,4.11434 -7.44673,8.71541 -7.44673,10.22461 0,1.68124 2.88412,-0.15329 7.44673,-4.73663 4.09567,-4.11434 7.4467,-8.71542 7.4467,-10.22461 z m -8.34031,7.48062 c 3.33453,-3.52146 6.46492,-6.40265 6.9564,-6.40265 0.49148,0 -1.83466,2.88119 -5.16919,6.40265 -3.33454,3.52146 -6.46493,6.40264 -6.95642,6.40264 -0.49149,0 1.83467,-2.88118 5.16921,-6.40264 z m 6.5531,-14.78171 c 0,-1.74716 -2.38062,-0.36461 -6.5531,3.80573 -3.60422,3.60234 -6.55312,7.78454 -6.55312,9.29372 0,1.74716 2.38062,0.36461 6.55312,-3.80573 3.60421,-3.60235 6.5531,-7.78453 6.5531,-9.29372 z m -11.91474,11.46531 c 0,-0.31484 2.6138,-2.99023 5.80844,-5.94533 l 5.80842,-5.37291 -5.24918,5.94532 c -4.893,5.54188 -6.36768,6.78617 -6.36768,5.37292 z m 9.56405,-18.16076 c -1.34413,-2.22612 -10.75553,7.06201 -10.75553,10.61467 0,1.83263 1.97438,0.79845 5.88783,-3.08399 3.2383,-3.21267 5.42877,-6.60146 4.8677,-7.53068 z m -5.98962,5.01319 c 2.30862,-2.51531 4.5996,-4.57332 5.09109,-4.57332 0.49149,0 -0.99526,2.05801 -3.30388,4.57332 -2.30863,2.51533 -4.59962,4.57333 -5.09111,4.57333 -0.49148,0 0.99527,-2.058 3.3039,-4.57333 z m 2.97869,-11.07628 c 0,-1.95668 -1.36741,-1.40305 -4.76591,1.92964 -2.62125,2.5705 -4.7659,5.90842 -4.7659,7.41762 0,1.95669 1.36741,1.40306 4.7659,-1.92964 2.62125,-2.57049 4.76591,-5.90841 4.76591,-7.41762 z m -5.65952,4.67364 c 1.77916,-2.01228 3.63695,-3.65868 4.12844,-3.65868 0.49148,0 -0.56207,1.6464 -2.34123,3.65868 -1.77914,2.01225 -3.63693,3.65865 -4.12842,3.65865 -0.49147,0 0.56207,-1.6464 2.34121,-3.65865 z m 0.21551,-17.59922 c 0.22543,-1.57225 -0.0892,-2.3478 -0.69921,-1.72344 -0.60999,0.6244 -1.29354,2.42166 -1.51901,3.99393 -0.22543,1.57225 0.0892,2.3478 0.69922,1.72344 0.61,-0.6244 1.29355,-2.42165 1.519,-3.99393 z m 7.82694,45.95381 c 2.30863,-2.51532 4.59962,-4.57331 5.0911,-4.57331 0.49148,0 -0.99526,2.05799 -3.3039,4.57331 -2.30862,2.51533 -4.5996,4.57334 -5.09108,4.57334 -0.49149,0 0.99526,-2.05801 3.30388,-4.57334 z m -10.72326,-34.53327 c 0,-0.37986 1.40744,-1.82046 3.12762,-3.20133 2.83462,-2.27545 2.89784,-2.21074 0.67478,0.69068 -2.33477,3.0472 -3.8024,4.01626 -3.8024,2.51065 z"
           id="path3061-4"
           inkscape:connector-curvature="0"
           sodipodi:nodetypes="sssssssscssssssssssssssssssssssssssssssssssssssssssssssssssssssssscsssscssssssscssccsscsssssssscscscssscssssccssssssscssssssssssssssssssscsssssssssssssssssssssscscssssssssss" />
      </g>
    </g>
  </g>
</svg>
