<svg id="raphael-paper-8" style="overflow: hidden; -moz-user-select: none; cursor: default; position: relative; left: -0.5px;" xmlns="http://www.w3.org/2000/svg" width="744" version="1.1" height="430"><desc>Map with caption "StatCounter Global Stats"</desc><defs><linearGradient y2="0" x2="6.123233995736766e-17" y1="1" x1="0" id="8-90-rgba_52_89_163_1__0-rgba_52_89_163_1__70-rgba_174_189_218_1__100-rgba_52_89_163_1_-rgba_52_89_163_1_"><stop stop-opacity="1" stop-color="#3459a3" offset="0%"></stop><stop stop-opacity="1" stop-color="#3459a3" offset="70%"></stop><stop stop-opacity="1" stop-color="#aebdda" offset="100%"></stop><stop stop-opacity="1" stop-color="#3459a3" offset="100%"></stop><stop stop-opacity="1" stop-color="#3459a3" offset="100%"></stop></linearGradient><linearGradient y2="0" x2="6.123233995736766e-17" y1="1" x1="0" id="8-90-rgba_73_118_6_1__0-rgba_73_118_6_1__70-rgba_182_200_156_1__100-rgba_73_118_6_1_-rgba_73_118_6_1_"><stop stop-opacity="1" stop-color="#497606" offset="0%"></stop><stop stop-opacity="1" stop-color="#497606" offset="70%"></stop><stop stop-opacity="1" stop-color="#b6c89c" offset="100%"></stop><stop stop-opacity="1" stop-color="#497606" offset="100%"></stop><stop stop-opacity="1" stop-color="#497606" offset="100%"></stop></linearGradient><linearGradient y2="0" x2="6.123233995736766e-17" y1="1" x1="0" id="8-90-rgba_172_224_47_1__0-rgba_172_224_47_1__70-rgba_222_243_172_1__100-rgba_172_224_47_1_-rgba_172_224_47_1_"><stop stop-opacity="1" stop-color="#ace02f" offset="0%"></stop><stop stop-opacity="1" stop-color="#ace02f" offset="70%"></stop><stop stop-opacity="1" stop-color="#def3ac" offset="100%"></stop><stop stop-opacity="1" stop-color="#ace02f" offset="100%"></stop><stop stop-opacity="1" stop-color="#ace02f" offset="100%"></stop></linearGradient><linearGradient y2="0" x2="6.123233995736766e-17" y1="1" x1="0" id="8-90-rgba_128_130_124_1__0-rgba_128_130_124_1__70-rgba_204_205_203_1__100-rgba_128_130_124_1_-rgba_128_130_124_1_"><stop stop-opacity="1" stop-color="#80827c" offset="0%"></stop><stop stop-opacity="1" stop-color="#80827c" offset="70%"></stop><stop stop-opacity="1" stop-color="#cccdcb" offset="100%"></stop><stop stop-opacity="1" stop-color="#80827c" offset="100%"></stop><stop stop-opacity="1" stop-color="#80827c" offset="100%"></stop></linearGradient><clipPath id="D05ADC39-1563-4FAE-9F64-BDFD3A321F4C"><rect transform="matrix(1,0,0,1,0,0)" height="430" width="744" y="0" x="0"></rect></clipPath><linearGradient y2="0" x2="6.123233995736766e-17" y1="1" x1="0" id="8-90-rgba_204_204_204_1__0-rgba_255_255_255_1__100"><stop stop-opacity="1" stop-color="#cccccc" offset="0%"></stop><stop stop-opacity="1" stop-color="#ffffff" offset="100%"></stop></linearGradient></defs><g stroke-width="8.940217391304348" transform="matrix(0.1119,0,0,0.1119,151.8655,51)" style="" class="raphael-group-10-dataset"><path fill-opacity="1" stroke-width="8.940217391304348" stroke-opacity="1" transform="matrix(1,0,0,1,0,0)" d="M1206,357Q1196,358,1193,354,1191,352,1189,351,1174,343,1156,326,1149,327,1144,331,1137,336,1131,342,1125,348,1114,357,1114,357,1113,358,1112,359,1112,361,1106,363,1096,364,1091,364,1089,359,1088,358,1088,357,1087,349,1085,341,1084,335,1079,331,1070,323,1058,319,1038,312,1016,313,1014,313,1012,312,1008,310,1000,311,991,312,982,320,977,324,970,326,968,327,968,328,966,331,961,330,947,328,937,341,932,349,932,356,933,366,940,373,948,380,950,393,951,403,948,407,945,410,943,414,939,421,928,422,918,423,914,419,910,415,907,413,905,411,905,406,906,401,908,390,911,380,918,374,925,367,926,364,927,361,928,361,931,359,929,355,928,353,928,351,928,350,928,345,928,340,932,331,933,322,933,318,934,313,934,311,922,310,917,317,913,325,905,334,898,342,891,355,887,362,881,373,872,390,866,407,865,410,866,414,867,415,868,416,872,417,875,422,887,435,897,450,903,458,905,469,906,474,908,479,910,486,915,489,923,494,932,495,940,496,948,495,958,494,968,490L973,494Q974,495,975,496,976,497,977,498,990,504,1002,510,1049,532,1098,537,1110,538,1121,540,1125,557,1119,570,1114,580,1113,590,1112,600,1113,610,1113,615,1111,616,1110,617,1110,619,1110,626,1109,633,1108,637,1106,640,1105,642,1104,644,1100,653,1108,663,1109,664,1110,664,1113,666,1113,672,1113,673,1113,674,1110,685,1116,691,1118,693,1119,694,1120,696,1121,697,1122,700,1123,702,1123,704,1122,705,1122,706,1121,707,1125,713,1126,718,1134,748,1158,765,1161,768,1164,771,1169,777,1179,777,1185,777,1187,774,1190,770,1196,765,1209,754,1223,745,1236,736,1248,730,1259,723,1274,715,1282,711,1285,703,1287,696,1282,692,1269,680,1256,670,1255,669,1254,667,1254,665,1253,663,1249,651,1253,642,1255,640,1257,639,1259,638,1260,637,1267,628,1286,631,1290,632,1297,635,1305,638,1313,637,1318,637,1322,635,1336,628,1345,624,1356,619,1366,617,1386,611,1402,601,1404,600,1405,599,1414,588,1421,576,1423,574,1424,571,1429,561,1428,559,1427,557,1424,556,1417,553,1410,549,1399,542,1393,530,1391,523,1393,514,1394,510,1400,509,1411,507,1420,508,1424,509,1441,506,1442,506,1443,505,1450,501,1451,491,1451,487,1445,483,1443,482,1441,482,1439,482,1437,481,1430,477,1431,473,1433,466,1443,462,1446,461,1448,461,1451,461,1453,460,1459,457,1456,446,1456,445,1455,443,1450,437,1454,426,1451,426,1448,427,1444,427,1441,427,1428,424,1421,417,1415,411,1410,397,1406,384,1400,380,1394,376,1393,375,1391,373,1388,371,1387,371,1386,370,1381,368,1375,368,1376,359,1383,353,1391,345,1401,340,1408,336,1414,330,1421,325,1423,317,1425,311,1420,308,1415,305,1409,310,1405,313,1403,319,1401,328,1389,326,1371,324,1365,340,1363,346,1363,353,1364,358,1357,358,1354,365,1358,369,1357,369,1354,370,1346,371,1341,366,1336,360,1333,358,1319,348,1306,340,1305,340,1303,339,1302,338,1301,337,1300,334,1295,335,1282,335,1276,343,1272,349,1266,356,1261,364,1247,358Q1226,357,1206,357Z" stroke="#333333" fill="#3459a3" style="fill: rgb(52, 89, 163); stroke: rgb(51, 51, 51); stroke-opacity: 1; fill-opacity: 1;"></path><path fill-opacity="1" stroke-width="8.940217391304348" stroke-opacity="1" transform="matrix(1,0,0,1,0,0)" d="M990,292Q991,293,993,293,995,294,996,294,1002,295,1008,291,1015,286,1015,277,1016,269,1011,268,1008,266,1005,265,1004,265,1002,266,991,269,988,279Q986,285,990,292Z" stroke="#333333" fill="#3459a3" style="fill: rgb(52, 89, 163); stroke: rgb(51, 51, 51); stroke-opacity: 1; fill-opacity: 1;"></path><path fill-opacity="1" stroke-width="8.940217391304348" stroke-opacity="1" transform="matrix(1,0,0,1,0,0)" d="M1043,284Q1046,292,1052,292,1062,292,1071,286,1080,279,1094,282,1099,279,1103,277,1095,271,1082,270,1071,269,1060,272,1057,274,1052,272,1049,271,1046,270L1045,269Q1041,277,1043,284Z" stroke="#333333" fill="#3459a3" style="fill: rgb(52, 89, 163); stroke: rgb(51, 51, 51); stroke-opacity: 1; fill-opacity: 1;"></path><path fill-opacity="1" stroke-width="8.940217391304348" stroke-opacity="1" transform="matrix(1,0,0,1,0,0)" d="M1781,2239Q1778,2233,1770,2233,1767,2233,1764,2237,1760,2241,1762,2250,1762,2251,1762,2253,1763,2256,1762,2259,1759,2265,1754,2271,1753,2272,1752,2273,1741,2280,1733,2290,1726,2298,1723,2310,1722,2314,1723,2319,1725,2325,1731,2325,1734,2325,1736,2324,1747,2320,1754,2316,1773,2305,1782,2280,1785,2270,1787,2259,1787,2256,1784,2253Q1785,2245,1781,2239Z" stroke="#333333" fill="#3459a3" style="fill: rgb(52, 89, 163); stroke: rgb(51, 51, 51); stroke-opacity: 1; fill-opacity: 1;"></path><path fill-opacity="1" stroke-width="8.940217391304348" stroke-opacity="1" transform="matrix(1,0,0,1,0,0)" d="M1553,2107Q1539,2127,1528,2148,1508,2186,1507,2229,1507,2255,1498,2278,1495,2288,1498,2300,1498,2303,1499,2304,1503,2312,1512,2311,1513,2311,1518,2310,1518,2309,1517,2308,1516,2305,1519,2301,1523,2297,1532,2297,1545,2297,1550,2304,1551,2305,1552,2306,1555,2308,1558,2311,1559,2313,1560,2314,1564,2318,1569,2323,1577,2332,1592,2331,1607,2329,1620,2327,1632,2325,1641,2318,1650,2312,1659,2306,1672,2298,1684,2290,1690,2286,1695,2282,1701,2277,1708,2272,1709,2271,1710,2268,1719,2243,1711,2219,1710,2220,1708,2220,1699,2222,1691,2209,1685,2199,1679,2195,1675,2192,1672,2188,1665,2180,1656,2172,1655,2171,1654,2170,1651,2163,1647,2162,1637,2162,1626,2162,1624,2162,1622,2161,1615,2158,1611,2153,1610,2152,1609,2150,1609,2148,1609,2147,1599,2121,1574,2111,1567,2108,1558,2108Q1555,2108,1553,2107ZM1613,2214Q1618,2213,1619,2209,1622,2208,1624,2211,1626,2213,1631,2211L1644,2208,1646,2214,1643,2214,1645,2223Q1642,2224,1640,2228,1640,2230,1638,2234,1637,2236,1621,2240L1622,2242Q1601,2249,1599,2238,1596,2226,1600,2226L1607,2220Q1610,2215,1613,2214Z" stroke="#333333" fill="#3459a3" style="fill: rgb(52, 89, 163); stroke: rgb(51, 51, 51); stroke-opacity: 1; fill-opacity: 1;"></path><path fill-opacity="1" stroke-width="8.940217391304348" stroke-opacity="1" transform="matrix(1,0,0,1,0,0)" d="M1699,571Q1700,560,1696,550,1696,550,1695,549,1695,549,1694,548,1693,547,1690,546,1677,543,1664,538,1654,533,1640,533,1634,533,1628,534,1603,538,1576,539,1577,542,1579,546,1581,550,1572,561,1569,563,1565,567,1546,584,1549,608,1549,610,1549,612,1554,628,1563,634,1568,638,1573,641,1581,646,1586,654,1588,658,1593,661,1599,665,1597,679,1596,684,1595,690,1595,691,1594,692,1592,698,1589,703,1591,705,1594,707,1604,718,1619,720,1636,722,1643,707,1647,698,1651,692,1652,690,1654,689,1660,687,1667,686,1673,685,1676,688,1684,699,1695,704,1695,700,1695,697L1695,697Q1695,694,1695,690,1696,683,1698,677,1702,668,1702,658,1703,657,1703,655,1704,654,1704,651,1706,640,1702,635,1701,633,1700,632,1687,620,1693,601Q1697,586,1699,571Z" stroke="#333333" fill="#3459a3" style="fill: rgb(52, 89, 163); stroke: rgb(51, 51, 51); stroke-opacity: 1; fill-opacity: 1;"></path><path fill-opacity="1" stroke-width="8.940217391304348" stroke-opacity="1" transform="matrix(1,0,0,1,0,0)" d="M1035,896Q1034,892,1032,888,1029,897,1021,903,1019,905,1016,905,998,904,980,899,966,896,953,897,941,899,929,909,918,919,904,917,900,917,897,914,879,896,867,873,864,867,859,863,852,856,841,849,835,845,829,841,824,837,820,836,818,835,817,834,808,830,801,825,791,817,780,812,782,813,782,815,783,832,774,845,773,848,772,850,771,866,771,882,771,884,770,885,769,887,767,891,765,895,760,899,732,919,700,933,684,941,670,952,666,956,662,960,651,971,646,980,644,985,645,988,653,1008,644,1026,643,1028,641,1030,630,1039,618,1037,616,1037,614,1036,605,1031,600,1021,599,1020,598,1019,592,1018,589,1021,584,1028,577,1032,575,1034,573,1033,559,1032,561,1012,561,1010,562,1008,577,995,573,971,573,968,573,966,566,970,559,974,555,977,550,980,549,981,548,981,538,985,531,993,522,1003,513,1013,508,1019,508,1026,508,1034,512,1042,517,1053,525,1057,530,1060,531,1063,534,1071,534,1080,535,1110,559,1124,577,1134,592,1146,600,1151,605,1159,615,1174,622,1186,623,1188,622,1190,618,1196,622,1200,623,1202,624,1203,628,1213,638,1221,640,1223,643,1225,657,1236,666,1252,667,1254,666,1256,666,1261,665,1265,662,1280,671,1288,680,1296,681,1309,682,1310,682,1311,689,1321,696,1321,703,1322,705,1325,706,1327,706,1329,703,1352,718,1370,729,1382,740,1392,749,1400,753,1409,759,1424,761,1441,761,1447,766,1451,775,1459,782,1467,794,1481,802,1498,807,1507,815,1508,818,1509,820,1510,829,1515,840,1516,858,1517,875,1517,879,1517,881,1520,882,1521,883,1522,893,1527,899,1533,901,1535,903,1536,905,1537,907,1537,909,1536,911,1536,917,1535,922,1535,926,1535,929,1535,935,1536,940,1539,942,1540,943,1541,950,1547,958,1558,959,1560,959,1562,962,1571,968,1578,974,1583,982,1589,984,1590,986,1590,1000,1594,1012,1602L1012,1602Q1014,1604,1016,1605,1023,1610,1036,1607,1038,1607,1039,1607,1050,1607,1052,1597,1053,1593,1054,1589,1054,1586,1054,1584,1054,1580,1054,1576,1054,1563,1051,1549,1049,1535,1050,1522,1051,1513,1054,1505,1056,1500,1058,1494,1045,1477,1024,1482L1024,1460Q1027,1457,1029,1456,1030,1454,1029,1450L1042,1450Q1045,1452,1050,1455,1050,1453,1052,1450,1058,1438,1069,1429,1073,1425,1078,1425,1080,1424,1081,1423,1087,1416,1079,1406,1070,1392,1070,1378,1071,1368,1079,1358,1080,1357,1080,1355,1082,1339,1075,1332,1071,1327,1068,1318,1060,1295,1048,1283,1046,1280,1043,1277,1039,1274,1032,1276,1029,1277,1027,1279,1020,1286,1008,1283,1000,1281,997,1273,994,1266,994,1256,994,1254,993,1252,991,1247,986,1245,978,1233,974,1218,962,1216,956,1221,949,1227,938,1232,929,1236,916,1230,914,1229,913,1227,912,1226,912,1224,910,1220,907,1217,905,1216,904,1214,899,1210,893,1211,890,1212,888,1212,878,1215,874,1210,867,1202,860,1192,851,1179,836,1170,835,1166,835,1163,837,1153,838,1142,838,1136,841,1132,848,1123,854,1113,858,1105,869,1100,871,1099,873,1097,880,1088,882,1073,885,1056,891,1039,894,1031,902,1024,914,1013,927,1010,931,1010,932,1006,933,1004,934,1003,938,1000,942,995,943,993,945,993,962,992,979,990,984,990,989,988,1003,984,1011,979,1013,978,1013,976,1015,965,1003,961,998,959,994,955,985,946,993,943,994,943,996,942,1009,934,1017,926,1023,920,1028,917Q1037,911,1035,896Z" stroke="#333333" fill="#3459a3" style="fill: rgb(52, 89, 163); stroke: rgb(51, 51, 51); stroke-opacity: 1; fill-opacity: 1;"></path><path fill-opacity="1" stroke-width="8.940217391304348" stroke-opacity="1" transform="matrix(1,0,0,1,0,0)" d="M1509,1631Q1506,1619,1494,1621,1482,1622,1471,1625,1462,1627,1456,1632,1455,1633,1453,1634,1451,1635,1449,1637,1448,1638,1446,1639,1440,1641,1430,1640,1410,1639,1395,1646,1389,1648,1384,1652,1383,1653,1382,1653,1377,1654,1373,1656,1370,1658,1368,1661,1364,1668,1365,1677,1369,1712,1358,1745,1354,1754,1345,1760,1338,1765,1336,1770,1335,1774,1340,1778,1346,1784,1355,1787,1366,1792,1369,1800,1371,1804,1374,1806,1375,1807,1376,1809,1376,1810,1377,1812,1382,1822,1387,1826,1389,1827,1390,1828,1392,1829,1393,1830,1398,1834,1407,1833,1419,1833,1432,1831,1439,1830,1442,1834,1458,1834,1462,1845,1464,1853,1469,1859,1473,1865,1479,1869,1483,1871,1487,1873,1502,1882,1521,1887,1527,1888,1530,1891,1537,1899,1535,1908,1532,1919,1521,1928,1513,1935,1508,1943,1504,1951,1501,1959,1499,1964,1498,1969,1497,1978,1502,1981,1507,1984,1516,1980,1523,1976,1529,1982,1530,1984,1532,1985,1538,1992,1544,1999,1549,2005,1560,2004,1565,2003,1571,2003,1574,2002,1576,2002,1583,2000,1587,1996,1607,1981,1633,1980,1638,1980,1640,1976,1642,1975,1644,1974,1653,1971,1653,1957,1658,1950,1661,1939,1662,1936,1662,1932,1662,1926,1668,1921,1667,1919,1667,1918,1665,1910,1666,1903,1667,1893,1672,1883,1674,1878,1678,1872,1679,1871,1678,1868,1677,1863,1674,1859,1672,1857,1670,1854,1669,1853,1668,1852,1664,1848,1659,1845,1653,1841,1647,1836,1637,1828,1632,1820,1631,1818,1630,1816,1628,1812,1629,1807,1629,1804,1630,1802,1631,1796,1630,1791,1629,1772,1611,1766,1600,1762,1587,1761,1560,1760,1551,1734,1546,1718,1543,1703,1541,1694,1536,1685,1536,1685,1535,1684,1535,1684,1535,1683,1525,1667,1517,1650,1515,1645,1512,1639Q1510,1636,1509,1631Z" stroke="#333333" fill="#3459a3" style="fill: rgb(52, 89, 163); stroke: rgb(51, 51, 51); stroke-opacity: 1; fill-opacity: 1;"></path><path fill-opacity="1" stroke-width="8.940217391304348" stroke-opacity="1" transform="matrix(1,0,0,1,0,0)" d="M1579,546Q1577,542,1576,540,1576,538,1574,535,1572,531,1569,526,1567,521,1563,517,1557,511,1550,510,1538,508,1530,503,1528,502,1527,500,1526,495,1523,492,1518,487,1511,481,1505,476,1499,465,1494,455,1483,440,1473,426,1454,426,1450,437,1455,443,1456,445,1456,446,1459,457,1453,460,1451,461,1448,461,1446,461,1443,462,1433,466,1431,473,1430,477,1437,481,1439,482,1441,482,1443,482,1445,483,1451,487,1451,491,1450,501,1443,505,1442,506,1441,506,1424,509,1420,508,1411,507,1400,509,1394,510,1393,514,1391,523,1393,530,1399,542,1410,549,1417,553,1424,556,1427,557,1428,559,1437,564,1440,572,1449,594,1465,617,1466,621,1467,626,1467,627,1467,629,1468,631,1468,633,1470,643,1470,653,1470,656,1469,657,1465,664,1457,668,1456,668,1455,670,1451,675,1451,681,1451,690,1457,697,1469,714,1484,729,1486,731,1491,732,1516,733,1532,726,1549,720,1551,718,1554,717,1562,716,1571,715,1580,711,1589,707,1589,706,1590,704,1590,703,1591,702,1593,697,1595,691,1596,688,1598,684,1599,675,1600,665,1594,661,1588,658,1586,654,1581,646,1574,641,1568,637,1561,632,1555,626,1552,618,1549,610,1549,597,1550,585,1560,574,1570,564,1575,557Q1581,551,1579,546Z" stroke="#333333" fill="#3459a3" style="fill: rgb(52, 89, 163); stroke: rgb(51, 51, 51); stroke-opacity: 1; fill-opacity: 1;"></path><path fill-opacity="1" stroke-width="8.940217391304348" stroke-opacity="1" transform="matrix(1,0,0,1,0,0)" d="M1695,549Q1696,550,1696,550,1700,560,1699,571,1697,586,1693,601,1687,620,1700,632,1701,633,1702,635,1706,640,1704,651,1704,654,1703,655,1703,657,1702,658,1702,668,1698,677,1696,683,1695,690,1695,694,1695,697,1698,697,1701,698,1703,698,1704,698,1712,698,1717,702,1723,707,1732,702,1739,698,1748,695,1750,695,1751,694,1754,692,1759,693,1767,694,1775,690,1799,679,1806,651,1809,638,1808,624,1808,615,1805,606,1805,605,1805,604,1802,594,1797,585,1785,560,1760,547,1753,543,1745,542Q1719,541,1695,549Z" stroke="#333333" fill="#80827c" style="fill: rgb(128, 130, 124); stroke: rgb(51, 51, 51); stroke-opacity: 1; fill-opacity: 1;"></path><path fill-opacity="1" stroke-width="8.940217391304348" stroke-opacity="1" transform="matrix(1,0,0,1,0,0)" d="M1406,3036Q1407,3040,1413,3039,1428,3039,1441,3043,1448,3046,1456,3050,1464,3055,1474,3053,1482,3051,1489,3048,1498,3045,1504,3041,1514,3035,1516,3023,1518,3014,1513,3006,1510,3002,1504,3000,1500,2998,1497,3000,1495,3001,1493,3002,1487,3004,1483,3010,1483,3012,1481,3012,1475,3014,1472,3017,1460,3032,1453,3019,1450,3013,1446,3009,1444,3006,1439,3011,1434,3017,1427,3021,1422,3024,1415,3024Q1399,3023,1406,3036Z" stroke="#333333" fill="#80827c" style="fill: rgb(128, 130, 124); stroke: rgb(51, 51, 51); stroke-opacity: 1; fill-opacity: 1;"></path><path fill-opacity="1" stroke-width="8.940217391304348" stroke-opacity="1" transform="matrix(1,0,0,1,0,0)" d="M673,778Q671,777,669,777,646,772,624,765,618,763,614,759,609,762,604,764,588,771,570,773,549,776,542,795,538,804,543,809,546,813,552,814,558,815,564,815,572,815,569,824,568,827,567,830,562,838,555,843,538,853,544,863,546,866,542,870,541,872,539,873,533,877,532,883,531,889,530,895,528,906,525,916,520,931,524,944,525,949,532,949,544,948,556,942,569,935,582,927,588,922,592,926,594,927,596,927,596,938,590,943,589,944,588,945,588,947,586,947,573,952,573,966,573,968,573,971,577,995,562,1008,561,1010,561,1012,559,1032,573,1033,575,1034,577,1032,584,1028,589,1021,592,1018,598,1019,599,1020,600,1021,605,1031,614,1036,616,1037,618,1037,630,1039,641,1030,643,1028,644,1026,653,1008,645,988,644,985,646,980,651,971,662,960,666,956,670,952,684,941,700,933,732,919,760,899,765,895,767,891,769,887,770,885,771,884,771,882,771,866,772,850,773,848,774,845,783,832,782,815,782,813,780,812,769,806,758,802,756,802,754,801,750,798,740,800,737,801,735,801,731,802,729,803,722,806,710,799,708,798,706,797,702,791,697,785,693,780,682,780,681,780,680,780Q677,779,673,778Z" stroke="#333333" fill="#3459a3" style="fill: rgb(52, 89, 163); stroke: rgb(51, 51, 51); stroke-opacity: 1; fill-opacity: 1;"></path><path fill-opacity="1" stroke-width="8.940217391304348" stroke-opacity="1" transform="matrix(1,0,0,1,0,0)" d="M948,279Q945,277,941,275,939,274,937,273,932,270,927,270,925,270,923,271,921,272,920,274,917,277,914,280,912,281,910,283,899,292,888,299,886,301,884,302,877,309,870,313,857,320,844,324,828,329,810,332,798,333,788,339,778,344,771,353,766,359,763,368,759,380,751,389,743,399,735,409,727,419,723,432,723,434,723,437,724,448,730,460,731,462,730,463,728,465,726,467,725,469,723,470,711,481,694,471,692,467,690,464,685,487,675,500,674,501,672,503,667,507,664,512L664,512Q665,513,664,513,664,515,664,516,665,523,671,530,680,538,684,545,691,553,690,564,690,576,686,587,684,595,681,603,678,612,677,621,674,638,680,652,681,656,687,658,663,673,661,697,660,714,637,722,630,724,623,728,615,732,610,736,602,744,611,755,612,757,614,758,618,763,624,765,646,772,669,777,671,777,673,778,677,779,680,780,681,780,682,780,693,780,697,785,702,791,706,797,708,798,710,799,722,806,729,803,731,802,735,801,737,801,740,800,750,798,754,801,756,802,758,802,769,806,780,811,791,817,801,825,808,830,817,834,818,835,820,836,824,837,829,841,835,845,841,849,852,856,859,863,864,867,867,873,879,896,897,914,900,917,904,917,918,919,929,909,941,899,953,897,966,896,980,899,998,904,1016,905,1019,905,1021,903,1029,897,1032,888,1034,878,1033,885,1036,877,1037,868,1042,844,1044,820,1045,817,1041,815,1036,812,1030,811,1016,809,1005,802,986,789,999,774,1002,770,1006,767,1012,764,1020,766,1022,767,1023,767,1033,769,1030,758,1030,755,1029,752,1029,751,1027,749,1020,741,1015,733,1014,731,1013,729,1013,728,1013,726,1014,712,1022,707,1026,705,1030,702,1032,701,1034,702,1038,703,1043,705,1048,707,1052,712,1057,721,1067,725,1069,726,1071,726,1084,728,1092,715,1093,714,1094,713,1103,705,1117,709,1119,708,1121,707L1121,707Q1120,706,1122,705,1123,704,1123,702,1122,700,1121,697,1120,696,1119,694,1118,693,1116,691,1110,685,1113,674,1113,673,1113,672,1113,666,1110,664,1109,664,1108,663,1100,653,1104,644,1105,642,1106,640,1108,637,1109,633,1110,626,1110,619,1110,617,1111,616,1113,615,1113,610,1112,600,1113,590,1114,580,1119,570,1125,557,1121,540,1110,538,1098,537,1049,532,1002,510,990,504,977,498,976,497,975,496,974,495,973,494L968,490Q958,494,948,495,940,496,932,495,923,494,915,489,910,486,908,479,906,474,905,469,903,458,897,450,887,435,875,422,872,417,868,416,867,415,866,414,865,410,866,407,872,390,881,373,887,362,891,355,898,342,905,334,913,325,917,317,922,310,934,311,934,313,933,316,932,321,932,331,932,330,933,330,935,325,939,324,949,322,950,311,950,296,949,281Q949,280,948,279Z" stroke="#333333" fill="#497606" style="fill: rgb(73, 118, 6); stroke: rgb(51, 51, 51); stroke-opacity: 1; fill-opacity: 1;"></path><path fill-opacity="1" stroke-width="8.940217391304348" stroke-opacity="1" transform="matrix(1,0,0,1,0,0)" d="M1010,1613Q1014,1640,1021,1665,1022,1667,1022,1668,1023,1680,1020,1693,1017,1704,1017,1716,1017,1727,1022,1738,1025,1746,1026,1754,1026,1778,1022,1802,1021,1808,1018,1814,1015,1820,1014,1825,1012,1842,1015,1857,1019,1874,1018,1891,1018,1936,1016,1980,1015,1994,1011,2007,1003,2032,999,2058,999,2061,997,2065,997,2066,997,2067,998,2083,1000,2099,1000,2106,1004,2109,1005,2111,1005,2112,1006,2114,1006,2115,1002,2126,996,2136,995,2140,993,2145,992,2146,992,2147,994,2156,995,2165,996,2175,999,2178,1000,2179,1000,2181,1000,2191,1004,2196,1005,2198,1004,2199,1002,2205,1001,2209,999,2222,1003,2235,1005,2240,1004,2245,1004,2248,1003,2250,1000,2261,997,2269,990,2284,991,2303,991,2313,990,2319,990,2322,989,2324,987,2328,990,2330,990,2330,990,2332,989,2345,988,2357,988,2364,986,2371,985,2374,985,2375,985,2377,984,2378,985,2378,985,2378,985,2379,984,2379,984,2380,983,2380,983,2384,982,2385,979,2388,973,2388,964,2393,962,2401,959,2412,963,2417,965,2419,966,2421,971,2427,975,2433,979,2437,977,2442,974,2449,972,2456,970,2463,969,2467,969,2473,968,2479L988,2497,978,2497,978,2522Q980,2524,984,2527,986,2530,985,2534,985,2534,985,2535,986,2542,986,2557,993,2557,989,2574,994,2575,998,2580L998,2605Q991,2607,988,2607L988,2634Q994,2636,994,2651,994,2659,993,2672,995,2672,999,2673L999,2677,1002,2677,1002,2681Q1002,2682,1002,2684L1014,2684Q1018,2676,1018,2672L1026,2672Q1027,2677,1037,2678L1037,2687,1032,2687,1032,2691Q1039,2696,1042,2695L1042,2707,1036,2707,1036,2719,1032,2719,1032,2724Q1038,2727,1038,2728,1039,2729,1039,2734,1039,2742,1034,2750,1034,2759,1039,2756L1039,2766,1035,2766Q1035,2781,1028,2784,1028,2788,1030,2788,1032,2788,1037,2788L1037,2795Q1036,2796,1036,2797L1028,2797,1028,2808,1034,2808,1034,2815,1032,2815,1032,2831,1048,2831,1048,2837,1039,2837Q1039,2840,1040,2843L1032,2843,1032,2858,1037,2858,1037,2872,1031,2872,1031,2880,1024,2880,1024,2873,1022,2873,1022,2879,1016,2879,1016,2866,1011,2866,1011,2858,988,2858,988,2866Q995,2866,997,2866L997,2876,986,2876Q987,2881,981,2886,975,2891,974,2892,974,2902,981,2905L981,2890,995,2890Q995,2893,998,2898L1003,2898,1003,2892,1015,2892Q1016,2893,1016,2897,1021,2896,1026,2901L1026,2905Q1022,2906,1022,2910,1022,2912,1023,2915L1017,2915,1017,2926Q1013,2924,1013,2927L1011,2933,1036,2933,1036,2940,1041,2940,1041,2945,1023,2945Q1022,2944,1017,2944L1017,2956,1021,2956Q1021,2962,1022,2964L1031,2964,1031,2958,1039,2958,1039,2966,1029,2966,1029,2998Q1031,2998,1031,2998L1037,2998,1037,2989,1043,2989Q1043,2991,1044,2991L1044,3011,1035,3011,1035,3022,1026,3022Q1027,3012,1025,3001,1023,2991,1023,2980L1023,2980,1017,2980Q1017,2975,1016,2974L1009,2974,1009,2980,1004,2980,1004,2998,1010,2998,1010,3007,1019,3007,1019,3027Q1022,3028,1030,3028,1037,3031,1033,3038,1034,3038,1039,3041,1043,3045,1046,3044,1046,3048,1047,3053L1037,3053,1037,3047,1033,3047,1033,3056,1026,3056,1026,3068Q1030,3068,1030,3072,1030,3075,1029,3087L1035,3087Q1037,3069,1036,3060L1039,3060Q1039,3061,1040,3060L1040,3055,1055,3055Q1055,3057,1056,3057L1056,3063,1048,3063,1048,3074Q1055,3077,1056,3082,1057,3083,1057,3091L1069,3091Q1069,3091,1069,3092,1069,3095,1069,3102,1070,3110,1075,3108L1075,3102,1084,3102,1084,3094,1095,3094Q1095,3095,1097,3096L1097,3106Q1094,3105,1093,3107,1093,3108,1093,3112L1085,3112,1085,3117,1073,3117,1073,3124,1066,3124Q1067,3127,1063,3128L1063,3132Q1069,3133,1066,3137,1070,3138,1078,3138,1085,3140,1084,3148L1091,3148Q1094,3147,1099,3146L1099,3167,1094,3167,1094,3163Q1095,3160,1095,3155L1087,3155,1087,3163,1081,3163,1081,3154,1069,3154Q1069,3151,1065,3151,1060,3151,1058,3151L1058,3148,1052,3148,1052,3142,1046,3142,1046,3148Q1047,3149,1051,3149L1051,3153,1057,3153,1057,3157,1074,3157Q1070,3166,1077,3173,1082,3179,1089,3180L1089,3189Q1094,3190,1102,3190L1110,3190Q1111,3186,1110,3183L1114,3183,1114,3173,1107,3173Q1107,3170,1107,3168,1106,3165,1102,3165L1102,3157,1110,3157Q1108,3150,1116,3148,1117,3147,1121,3143,1125,3140,1128,3141L1128,3132,1137,3132,1137,3148Q1129,3151,1122,3151L1122,3157,1114,3157,1114,3166,1120,3166,1120,3173,1146,3173Q1147,3141,1145,3127L1158,3127Q1159,3122,1162,3121,1165,3120,1167,3116L1176,3116,1176,3126,1170,3126,1170,3131Q1164,3128,1164,3132,1164,3135,1165,3139L1158,3139,1158,3155Q1161,3156,1166,3156,1170,3156,1174,3152L1190,3152,1190,3160Q1188,3160,1182,3164,1176,3167,1171,3165L1171,3183Q1173,3184,1176,3185,1179,3186,1181,3189,1182,3191,1192,3191L1192,3194,1168,3194,1168,3188,1157,3188,1157,3183Q1164,3177,1164,3172,1164,3162,1160,3162,1159,3162,1156,3173,1153,3185,1153,3191L1145,3191Q1144,3188,1144,3186L1136,3186,1136,3180,1121,3180,1121,3191,1126,3191,1126,3196,1151,3196,1151,3204,1146,3204,1146,3208,1153,3209,1153,3215Q1163,3215,1189,3219L1189,3227Q1189,3232,1194,3232,1195,3231,1200,3231,1201,3231,1234,3245L1234,3238,1231,3238,1231,3234,1225,3234,1225,3230,1220,3230,1220,3225,1212,3225,1212,3219,1216,3219,1216,3211,1229,3211,1229,3225,1250,3225,1250,3229,1261,3229,1261,3219Q1256,3219,1254,3217L1254,3213,1267,3213,1267,3210,1255,3210Q1254,3211,1243,3211L1234,3211Q1232,3211,1230,3206L1221,3206,1220,3209,1217,3209,1217,3203Q1212,3202,1212,3198,1212,3193,1211,3189,1212,3181,1212,3178,1212,3173,1210,3168L1210,3141,1216,3138,1216,3131Q1202,3124,1201,3115L1197,3115Q1197,3117,1196,3119L1184,3119Q1186,3115,1178,3116L1178,3110,1182,3110,1182,3103,1185,3103,1185,3098Q1183,3099,1155,3099L1154,3103Q1154,3104,1146,3104,1145,3103,1144,3103,1108,3101,1106,3101L1106,3096,1102,3096,1102,3086Q1102,3084,1100,3083,1099,3083,1099,3082L1099,3064,1095,3063,1095,3050,1073,3050,1073,3059,1071,3059,1071,3056,1067,3056Q1067,3051,1065,3048,1063,3045,1063,3041L1063,3004Q1063,3002,1065,3001,1068,3000,1067,2999L1068,2989,1072,2989Q1072,2983,1073,2980,1074,2980,1074,2979,1077,2977,1077,2972L1077,2954Q1077,2947,1077,2942,1077,2934,1071,2933L1071,2924Q1079,2925,1079,2915,1080,2903,1081,2899,1086,2898,1085,2894,1085,2888,1085,2887,1092,2884,1091,2882L1091,2874Q1091,2869,1089,2868,1086,2865,1085,2862,1084,2860,1084,2844,1083,2839,1082,2835,1082,2827,1087,2826L1087,2820,1085,2820,1085,2813,1077,2813,1077,2811,1072,2811,1072,2804,1084,2804,1084,2802,1089,2802,1089,2794Q1086,2792,1084,2792,1086,2787,1080,2786,1072,2787,1071,2786,1073,2773,1064,2753L1064,2735Q1061,2735,1059,2735,1055,2723,1055,2723,1054,2721,1054,2710,1057,2698,1057,2695,1064,2692,1063,2681,1063,2675,1059,2672,1054,2669,1054,2662,1054,2639,1054,2637,1054,2615,1056,2603,1058,2592,1058,2561L1067,2551Q1069,2545,1067,2535,1067,2534,1067,2534L1067,2533Q1066,2530,1064,2528,1062,2525,1062,2519L1067,2479Q1067,2478,1067,2476,1066,2469,1064,2463,1059,2446,1055,2429,1053,2419,1056,2412,1059,2405,1063,2398,1063,2397,1064,2396,1072,2388,1078,2376,1081,2369,1083,2362,1080,2361,1078,2360,1077,2359,1076,2359,1065,2359,1069,2348,1075,2336,1079,2323,1088,2297,1088,2271,1087,2262,1080,2251,1073,2242,1069,2231,1066,2219,1063,2207,1059,2190,1061,2173,1063,2154,1071,2135,1073,2128,1071,2120,1068,2107,1068,2095,1069,2081,1075,2067,1077,2065,1078,2063,1079,2062,1080,2060,1080,2058,1081,2057,1083,2055,1084,2049,1084,2043,1087,2037,1094,2023,1104,2010,1111,2000,1121,1991,1123,1990,1123,1987,1124,1970,1124,1953,1124,1940,1117,1932,1116,1930,1114,1929,1107,1924,1106,1914,1105,1912,1106,1911,1108,1909,1109,1907,1136,1870,1157,1829,1163,1820,1160,1812,1158,1806,1154,1800,1153,1800,1151,1799,1150,1798,1149,1797,1145,1794,1141,1790,1137,1786,1132,1783,1122,1777,1121,1761,1119,1734,1108,1714,1103,1704,1097,1697,1096,1695,1096,1693,1097,1681,1098,1670,1099,1657,1092,1649,1091,1647,1089,1645,1085,1640,1084,1635,1083,1631,1081,1629,1080,1627,1080,1624,1079,1622,1076,1618,1070,1611,1063,1605,1062,1603,1061,1601,1057,1595,1054,1589,1053,1593,1052,1597,1050,1607,1039,1607,1038,1607,1036,1607,1023,1610,1016,1605,1014,1604,1012,1602L1011,1602Q1009,1607,1010,1613Z" stroke="#333333" fill="#3459a3" style="fill: rgb(52, 89, 163); stroke: rgb(51, 51, 51); stroke-opacity: 1; fill-opacity: 1;"></path><path fill-opacity="1" stroke-width="8.940217391304348" stroke-opacity="1" transform="matrix(1,0,0,1,0,0)" d="M1012,2733L1008,2733,1008,2728,1011,2728,1011,2722,1005,2722,1005,2714Q1011,2713,1013,2711,1013,2710,1013,2705,1013,2703,1008,2700,1004,2697,1006,2692,997,2692,998,2686L991,2686,991,2690,987,2690,987,2751Q988,2751,993,2750,998,2750,998,2754L1006,2754,1006,2746,1012,2746Z" stroke="#333333" fill="#3459a3" style="fill: rgb(52, 89, 163); stroke: rgb(51, 51, 51); stroke-opacity: 1; fill-opacity: 1;"></path><path fill-opacity="1" stroke-width="8.940217391304348" stroke-opacity="1" transform="matrix(1,0,0,1,0,0)" d="M1000,2811Q1001,2812,1004,2812L1009,2812,1009,2805,1009,2804,1003,2804,1003,2808,1000,2807Z" stroke="#333333" fill="#3459a3" style="fill: rgb(52, 89, 163); stroke: rgb(51, 51, 51); stroke-opacity: 1; fill-opacity: 1;"></path><path fill-opacity="1" stroke-width="8.940217391304348" stroke-opacity="1" transform="matrix(1,0,0,1,0,0)" d="M1008,2821L1011,2821,1011,2833Q1013,2832,1021,2832L1021,2826,1016,2826Q1015,2820,1015,2818L1004,2818,1004,2823Q1007,2822,1008,2821Z" stroke="#333333" fill="#3459a3" style="fill: rgb(52, 89, 163); stroke: rgb(51, 51, 51); stroke-opacity: 1; fill-opacity: 1;"></path><path fill-opacity="1" stroke-width="8.940217391304348" stroke-opacity="1" transform="matrix(1,0,0,1,0,0)" d="M1010,2966L1010,2952,1005,2952Q1005,2958,1004,2970,1004,2972,1005,2972L1015,2972Q1016,2971,1016,2969Q1016,2965,1010,2966Z" stroke="#333333" fill="#3459a3" style="fill: rgb(52, 89, 163); stroke: rgb(51, 51, 51); stroke-opacity: 1; fill-opacity: 1;"></path><path fill-opacity="1" stroke-width="8.940217391304348" stroke-opacity="1" transform="matrix(1,0,0,1,0,0)" d="M1012,3048Q1015,3047,1022,3047L1022,3037,1014,3037,1014,3041,1006,3041,1006,3045Q1006,3045,1009,3044Q1011,3044,1012,3048Z" stroke="#333333" fill="#3459a3" style="fill: rgb(52, 89, 163); stroke: rgb(51, 51, 51); stroke-opacity: 1; fill-opacity: 1;"></path><path fill-opacity="1" stroke-width="8.940217391304348" stroke-opacity="1" transform="matrix(1,0,0,1,0,0)" d="M992,2935L992,2944,997,2944,997,2942,996,2941,996,2939,999,2938,999,2935Z" stroke="#333333" fill="#3459a3" style="fill: rgb(52, 89, 163); stroke: rgb(51, 51, 51); stroke-opacity: 1; fill-opacity: 1;"></path><path fill-opacity="1" stroke-width="8.940217391304348" stroke-opacity="1" transform="matrix(1,0,0,1,0,0)" d="M995,2956L995,2948,992,2948,992,2952,986,2952,986,2957,991,2957,991,2961,997,2961,997,2968Q991,2968,991,2972,991,2975,992,2978L1000,2978,1000,2956Z" stroke="#333333" fill="#3459a3" style="fill: rgb(52, 89, 163); stroke: rgb(51, 51, 51); stroke-opacity: 1; fill-opacity: 1;"></path><path fill-opacity="1" stroke-width="8.940217391304348" stroke-opacity="1" transform="matrix(1,0,0,1,0,0)" d="M1008,3017L1003,3017,1003,3013,1002,3013,1001,3013,1001,3020Q1001,3021,1001,3024,1001,3026,1008,3026L1009,3026,1009,3020Q1008,3019,1008,3017Z" stroke="#333333" fill="#3459a3" style="fill: rgb(52, 89, 163); stroke: rgb(51, 51, 51); stroke-opacity: 1; fill-opacity: 1;"></path><path fill-opacity="1" stroke-width="8.940217391304348" stroke-opacity="1" transform="matrix(1,0,0,1,0,0)" d="M1032,3101L1032,3117,1038,3117Q1036,3111,1043,3111L1043,3108Q1042,3104,1042,3101Z" stroke="#333333" fill="#3459a3" style="fill: rgb(52, 89, 163); stroke: rgb(51, 51, 51); stroke-opacity: 1; fill-opacity: 1;"></path><path fill-opacity="1" stroke-width="8.940217391304348" stroke-opacity="1" transform="matrix(1,0,0,1,0,0)" d="M1055,3096L1055,3092,1048,3092,1048,3095,1053,3095,1053,3100,1058,3100Q1058,3100,1058,3103,1058,3105,1059,3105L1059,3101,1059,3099,1057,3099,1057,3096Z" stroke="#333333" fill="#3459a3" style="fill: rgb(52, 89, 163); stroke: rgb(51, 51, 51); stroke-opacity: 1; fill-opacity: 1;"></path><path fill-opacity="1" stroke-width="8.940217391304348" stroke-opacity="1" transform="matrix(1,0,0,1,0,0)" d="M1317,3207L1320,3207Q1321,3210,1321,3211L1323,3211,1323,3206,1336,3206,1336,3203,1341,3203,1341,3197,1334,3197,1334,3202,1317,3202Z" stroke="#333333" fill="#3459a3" style="fill: rgb(52, 89, 163); stroke: rgb(51, 51, 51); stroke-opacity: 1; fill-opacity: 1;"></path><path fill-opacity="1" stroke-width="8.940217391304348" stroke-opacity="1" transform="matrix(1,0,0,1,0,0)" d="M2101,871Q2090,869,2074,860,2057,851,2062,851,2066,850,2055,839,2045,828,2034,826,2022,824,2024,804L2001,803Q1996,813,1996,814,1996,817,1994,819,1990,822,1987,828,1986,835,1983,839,1981,843,1973,845,1964,847,1963,848,1961,848,1960,851,1959,855,1958,856,1960,869,1952,866,1952,874,1952,878,1945,878,1943,878L1943,856Q1932,852,1921,854,1919,851,1926,851,1928,849,1936,849,1937,849,1949,849,1947,846,1950,845,1951,845,1956,845,1953,841,1957,840,1960,839,1965,838,1967,837,1971,830,1972,826,1979,824,1981,823,1981,810,1981,794,1976,795L1976,791,1936,791,1936,788,1945,788,1945,782,1936,782,1936,785,1929,785,1929,791,1914,791Q1902,796,1899,796,1899,800,1899,818,1898,836,1899,838,1899,839,1910,847,1921,854,1917,854L1896,854Q1888,854,1885,854,1884,855,1885,858L1873,858,1873,855Q1866,855,1864,854,1863,857,1863,861L1859,861,1859,851,1863,851,1863,848,1871,848,1871,851,1893,851,1893,833Q1892,833,1893,831L1889,831,1889,826,1887,826Q1888,809,1888,802L1893,802Q1891,799,1893,797,1895,794,1897,796L1897,790,1893,790,1893,785,1899,785,1899,782,1888,782,1888,787,1881,787,1881,793,1878,793,1878,809,1885,809,1885,817Q1884,817,1878,817L1878,824,1867,824Q1868,818,1866,808,1865,798,1870,787,1876,776,1889,767,1901,757,1914,747,1917,744,1919,730L1896,718Q1895,717,1895,716,1887,705,1878,701,1866,694,1863,697,1859,699,1858,697,1856,694,1855,690,1854,682,1853,674,1852,661,1851,648,1851,639,1845,635,1844,634,1843,633,1836,630,1831,626,1818,617,1806,607,1806,606,1805,606,1808,614,1808,623,1809,637,1806,651,1799,678,1775,690,1767,693,1759,692,1754,692,1751,693,1750,694,1748,695,1739,698,1732,702,1723,706,1717,701,1712,698,1704,698,1703,698,1701,697,1698,697,1695,696L1695,697Q1695,700,1695,703,1684,699,1676,688,1673,685,1667,685,1660,686,1654,689,1652,690,1651,692,1647,697,1643,706,1636,722,1619,719,1604,717,1594,706,1591,704,1590,703,1589,704,1589,705,1588,707,1586,707,1573,713,1557,716,1554,717,1551,718,1545,720,1539,723,1516,733,1491,731,1486,731,1484,729,1469,714,1457,697,1451,690,1451,680,1451,675,1455,669,1456,668,1457,667,1465,663,1469,657,1470,655,1470,653,1470,642,1468,632,1468,630,1467,628,1467,627,1467,626,1466,621,1465,616,1449,594,1440,571,1437,564,1429,558,1429,560,1424,570,1423,573,1421,576,1414,588,1405,598,1404,600,1402,600,1386,611,1366,616,1356,619,1345,623,1336,628,1322,634,1318,636,1313,636,1305,637,1297,634,1290,632,1286,631,1267,628,1260,636,1259,637,1257,638,1255,639,1253,642,1249,651,1253,662,1254,665,1254,666,1255,668,1256,669,1269,680,1282,691,1287,696,1285,703,1282,710,1274,715,1259,722,1248,729,1236,736,1223,744,1209,754,1196,764,1190,770,1187,774,1185,777,1179,777,1169,777,1164,770,1161,767,1158,765,1134,747,1126,718,1125,713,1121,707,1119,708,1117,709,1103,705,1094,712,1093,713,1092,715,1084,727,1071,726,1069,726,1067,725,1057,720,1052,712,1048,707,1043,705,1038,703,1034,701,1032,701,1030,702,1026,704,1022,707,1014,712,1013,726,1013,727,1013,728,1014,731,1015,732,1020,740,1027,749,1029,750,1029,751,1030,754,1030,758,1033,769,1023,766,1022,766,1020,766,1012,763,1006,767,1002,770,999,773,986,789,1005,801,1016,808,1030,811,1036,812,1041,814,1045,816,1044,819,1042,844,1037,868,1036,877,1033,884,1032,886,1032,887,1034,892,1035,895,1037,911,1028,917,1023,920,1017,926,1009,933,996,941,994,942,993,942,985,945,994,954,998,958,1003,960,1015,965,1013,975,1013,978,1011,979,1003,984,989,988,984,989,979,990,962,991,945,992,943,993,942,994,938,999,934,1003,933,1004,932,1005,931,1009,927,1010,914,1012,902,1023,894,1030,891,1039,885,1055,882,1073,880,1088,873,1097,871,1099,869,1099,858,1105,854,1112,848,1123,841,1132,838,1136,838,1142,837,1153,835,1163,835,1165,836,1169,851,1179,860,1192,867,1202,874,1210,878,1214,888,1212,890,1211,893,1211,899,1210,904,1213,905,1215,907,1217,910,1219,912,1224,912,1225,913,1227,914,1229,916,1230,929,1235,938,1231,949,1227,956,1221,962,1216,974,1217,978,1233,986,1245,991,1247,993,1251,994,1254,994,1256,994,1265,997,1273,1000,1280,1008,1282,1020,1285,1027,1278,1029,1276,1032,1275,1039,1273,1043,1277,1046,1279,1048,1282,1053,1277,1056,1270,1056,1269,1057,1267,1073,1265,1087,1264,1089,1264,1091,1263,1098,1260,1105,1257,1106,1257,1107,1256,1115,1247,1124,1239,1126,1238,1128,1237,1132,1236,1136,1234,1143,1232,1148,1228,1162,1217,1176,1206,1193,1194,1209,1206,1223,1216,1227,1232,1232,1247,1230,1263,1229,1272,1228,1281,1228,1284,1228,1286,1225,1299,1233,1304,1240,1308,1248,1311,1253,1313,1254,1318,1255,1319,1255,1320,1266,1337,1288,1342,1302,1345,1315,1348,1355,1357,1388,1373,1397,1378,1409,1380,1411,1381,1413,1381,1418,1383,1422,1384,1425,1385,1427,1386,1433,1387,1433,1390,1440,1411,1441,1434,1442,1446,1440,1456,1439,1470,1436,1483,1435,1486,1436,1489,1438,1493,1444,1495,1450,1497,1455,1495,1457,1494,1459,1494,1473,1495,1485,1491,1487,1490,1489,1490,1513,1494,1518,1512,1519,1516,1517,1518,1516,1519,1515,1520,1512,1526,1516,1531,1521,1536,1528,1540,1530,1541,1532,1542,1536,1544,1539,1548,1542,1550,1545,1554,1546,1555,1546,1557,1546,1563,1548,1568,1552,1577,1553,1585,1555,1598,1550,1609,1546,1618,1541,1627,1539,1631,1540,1635,1544,1642,1545,1649,1546,1659,1542,1669,1539,1676,1535,1684,1536,1684,1536,1685,1541,1693,1543,1702,1546,1717,1551,1733,1560,1759,1587,1761,1600,1762,1611,1766,1629,1771,1630,1790,1631,1796,1630,1802,1629,1804,1629,1806,1628,1811,1630,1816,1631,1818,1632,1819,1637,1827,1647,1836,1653,1841,1659,1844,1664,1848,1668,1851,1669,1852,1670,1854,1672,1856,1674,1859,1677,1862,1678,1868,1679,1870,1678,1872,1674,1878,1672,1882,1667,1892,1666,1903,1665,1910,1667,1917,1667,1919,1668,1920,1668,1922,1670,1922,1677,1924,1683,1927,1693,1932,1692,1948,1691,1962,1683,1973,1682,1974,1681,1975,1677,1981,1670,1985,1668,1986,1667,1986,1630,2009,1597,2031,1594,2033,1591,2034,1586,2035,1583,2039,1576,2046,1573,2050,1564,2065,1555,2079,1549,2092,1550,2104,1551,2106,1553,2107,1555,2107,1558,2107,1567,2108,1574,2111,1599,2121,1609,2146,1609,2148,1609,2149,1610,2151,1611,2152,1615,2158,1622,2161,1624,2162,1626,2162,1637,2162,1647,2162,1651,2162,1654,2169,1655,2171,1656,2172,1665,2179,1672,2188,1675,2191,1679,2194,1685,2199,1691,2209,1699,2221,1708,2220,1710,2219,1711,2219,1715,2216,1720,2213,1732,2202,1745,2192,1746,2194,1747,2195,1748,2197,1750,2199,1752,2202,1761,2206,1763,2199,1767,2194,1769,2192,1774,2182,1778,2173,1791,2157,1791,2156,1792,2154,1793,2152,1796,2148,1799,2143,1796,2146,1793,2149,1792,2151,1791,2154,1783,2157,1775,2160,1767,2157L1766,2154,1770,2153Q1768,2148,1768,2146,1767,2142,1775,2140,1775,2132,1783,2131,1782,2126,1788,2117,1793,2109,1787,2101,1792,2099,1792,2090,1793,2081,1795,2080L1799,2081Q1803,2082,1808,2080L1812,2079,1817,2096Q1811,2104,1807,2110,1803,2117,1806,2119,1808,2122,1804,2129,1801,2134,1801,2138,1801,2137,1802,2136,1806,2131,1808,2126,1813,2117,1819,2109,1821,2106,1825,2103,1826,2102,1827,2101,1830,2097,1834,2095,1847,2089,1859,2082,1870,2076,1878,2067,1884,2060,1885,2050,1887,2028,1885,2005,1884,1978,1888,1951,1889,1941,1894,1932,1895,1931,1896,1931,1918,1933,1932,1916,1944,1902,1951,1884,1954,1877,1962,1877,1975,1876,1989,1879,1994,1881,2005,1880,2008,1879,2009,1878,2010,1877,2011,1876,2015,1874,2015,1868,2016,1864,2018,1861,2023,1853,2035,1851,2038,1851,2044,1849,2048,1848,2049,1846,2051,1844,2054,1841,2059,1835,2066,1832,2085,1826,2106,1828,2117,1829,2127,1830,2129,1830,2131,1830,2157,1827,2181,1825,2184,1825,2184,1824,2186,1821,2190,1820,2194,1819,2197,1816,2198,1815,2199,1814,2215,1811,2219,1791,2222,1780,2226,1770,2231,1756,2241,1745,2259,1722,2272,1695,2274,1691,2274,1688,2274,1678,2277,1669,2278,1667,2278,1665,2279,1660,2280,1656,2283,1645,2293,1631,2295,1628,2297,1626,2303,1615,2307,1603,2319,1569,2335,1538,2337,1533,2338,1526,2340,1515,2340,1505,2340,1504,2340,1503,2340,1501,2340,1498,2341,1494,2340,1489,2340,1484,2339,1480,2339,1478,2338,1476,2335,1471,2336,1462,2336,1458,2335,1455,2334,1449,2335,1441,2336,1439,2336,1434,2336,1431,2338,1425,2339,1418,2340,1410,2339,1408,2340,1402,2343,1399,2346,1398,2359,1394,2372,1390,2382,1386,2391,1379,2392,1378,2393,1377,2395,1376,2395,1375,2401,1357,2416,1345,2421,1342,2423,1337,2434,1319,2455,1313,2472,1307,2483,1297,2484,1296,2485,1295,2493,1290,2497,1279,2500,1272,2503,1267,2513,1247,2533,1229,2534,1228,2534,1226,2535,1222,2537,1219,2541,1212,2541,1199,2541,1197,2541,1194,2541,1183,2539,1172,2539,1171,2538,1169,2538,1164,2538,1151,2539,1149,2538,1147,2536,1139,2535,1128,2535,1126,2534,1124,2532,1121,2533,1114,2533,1112,2532,1110,2531,1108,2529,1107,2528,1106,2527,1106,2525,1102,2523,1100,2518,1097,2515,1091,2514,1088,2510,1087,2501,1085,2492,1083,2468,1079,2451,1064,2437,1051,2426,1037,2424,1033,2419,1031,2418,1031,2416,1030,2408,1021,2391,1006,2382,999,2374,990,2365,980,2355,972,2341,961,2325,957,2314,954,2303,957,2292,960,2275,962L2270,963Q2264,963,2259,962,2257,962,2254,962,2252,961,2250,960,2242,956,2238,950,2235,946,2232,943,2224,933,2206,927,2196,925,2186,924,2184,924,2181,924,2177,925,2175,927,2169,935,2156,938,2154,938,2152,939,2149,941,2142,941,2139,938,2139,932,2140,921,2134,913,2128,903,2123,892,2122,891,2121,889,2114,878,2104,872Q2102,871,2101,871Z" stroke="#333333" fill="#3459a3" style="fill: rgb(52, 89, 163); stroke: rgb(51, 51, 51); stroke-opacity: 1; fill-opacity: 1;"></path><path fill-opacity="1" stroke-width="8.940217391304348" stroke-opacity="1" transform="matrix(1,0,0,1,0,0)" d="M1919,762L1919,766,1906,766,1906,783,1908,783Q1909,780,1909,779L1918,779,1918,783,1927,783,1926,770Q1923,770,1923,767,1923,763,1923,762Z" stroke="#333333" fill="#3459a3" style="fill: rgb(52, 89, 163); stroke: rgb(51, 51, 51); stroke-opacity: 1; fill-opacity: 1;"></path><path fill-opacity="1" stroke-width="8.940217391304348" stroke-opacity="1" transform="matrix(1,0,0,1,0,0)" d="M1315,1349Q1302,1346,1288,1342,1266,1337,1255,1321,1255,1319,1254,1318,1253,1314,1248,1312,1240,1309,1233,1304,1225,1299,1228,1286,1228,1284,1228,1282,1229,1272,1230,1263,1232,1247,1227,1233,1223,1217,1209,1206,1193,1195,1176,1207,1162,1218,1148,1229,1143,1233,1136,1235,1132,1236,1128,1238,1126,1238,1124,1239,1115,1247,1107,1256,1106,1258,1105,1258,1098,1260,1091,1263,1089,1265,1087,1265,1073,1266,1057,1268,1056,1269,1056,1271,1053,1278,1048,1283,1060,1295,1068,1318,1071,1327,1075,1332,1082,1339,1080,1355,1080,1357,1079,1358,1071,1368,1070,1378,1070,1392,1079,1406,1087,1416,1081,1423,1080,1424,1078,1425,1073,1425,1069,1429,1058,1438,1052,1450,1050,1453,1050,1455,1057,1460,1067,1467,1068,1468,1072,1473,1074,1476,1077,1477L1097,1477,1097,1491,1103,1498,1103,1510,1088,1510Q1086,1506,1065,1505,1062,1498,1058,1494,1056,1500,1054,1505,1051,1513,1050,1522,1049,1535,1051,1549,1054,1563,1054,1576,1054,1580,1054,1584,1054,1586,1054,1589,1057,1595,1061,1601,1062,1603,1063,1605,1070,1611,1076,1618,1079,1622,1080,1624,1080,1627,1081,1629,1083,1631,1084,1635,1085,1640,1089,1645,1091,1647,1092,1649,1099,1657,1098,1670,1097,1681,1096,1693,1096,1695,1097,1697,1103,1704,1108,1714,1119,1734,1121,1761,1122,1777,1132,1783,1137,1786,1141,1790,1145,1794,1149,1798,1150,1798,1151,1799,1153,1800,1154,1800,1156,1799,1157,1796,1158,1794,1159,1792,1161,1788,1165,1785,1169,1782,1170,1778,1171,1776,1171,1775,1171,1760,1183,1757,1199,1754,1215,1749,1223,1747,1232,1745,1241,1742,1244,1748,1251,1759,1257,1771,1259,1774,1260,1777,1263,1782,1268,1784,1270,1784,1271,1783,1277,1779,1278,1768,1279,1754,1288,1753,1291,1752,1293,1752L1306,1751Q1308,1751,1309,1751,1311,1751,1313,1751,1316,1751,1317,1752,1331,1759,1345,1760,1354,1754,1358,1745,1369,1712,1365,1677,1364,1668,1368,1661,1370,1658,1373,1656,1377,1654,1382,1653,1383,1653,1384,1652,1389,1648,1395,1646,1410,1639,1430,1640,1440,1641,1446,1639,1448,1638,1449,1637,1451,1635,1453,1634,1455,1633,1456,1632,1462,1627,1471,1625,1482,1622,1494,1621,1506,1619,1509,1631,1510,1636,1512,1639,1515,1645,1517,1650,1525,1667,1535,1683,1535,1684,1535,1684,1539,1677,1542,1669,1546,1660,1545,1650,1544,1643,1540,1635,1539,1631,1541,1627,1546,1619,1550,1609,1555,1598,1553,1586,1552,1577,1548,1568,1546,1563,1546,1558,1546,1556,1545,1554,1542,1551,1539,1548,1536,1545,1532,1543,1530,1542,1528,1541,1521,1536,1516,1531,1512,1527,1515,1521,1516,1519,1517,1518,1519,1517,1518,1512,1513,1494,1489,1491,1487,1491,1485,1491,1473,1496,1459,1494,1457,1494,1455,1495,1450,1497,1444,1495,1438,1493,1436,1489,1435,1486,1436,1483,1439,1470,1440,1457,1442,1446,1441,1435,1440,1412,1433,1390,1433,1388,1427,1386,1425,1386,1422,1385,1418,1383,1413,1382,1411,1381,1409,1381,1397,1379,1388,1374Q1355,1357,1315,1349ZM1200,1603L1205,1603,1205,1628,1212,1628Q1214,1634,1217,1634L1217,1639Q1216,1639,1212,1643L1212,1649Q1198,1652,1191,1643,1180,1630,1177,1628L1177,1596,1185,1596Q1189,1596,1200,1597Z" stroke="#333333" fill="#ace02f" style="fill: rgb(172, 224, 47); stroke: rgb(51, 51, 51); stroke-opacity: 1; fill-opacity: 1;"></path><path fill-opacity="1" stroke-width="8.940217391304348" stroke-opacity="1" transform="matrix(1,0,0,1,0,0)" d="M1661,1939Q1658,1950,1653,1957,1653,1971,1644,1974,1642,1975,1640,1976,1638,1980,1633,1980,1607,1981,1587,1996,1583,2000,1576,2002,1574,2002,1571,2003,1565,2003,1560,2004,1549,2005,1544,1999,1538,1992,1532,1985,1530,1984,1529,1982,1523,1976,1516,1980,1507,1984,1502,1981,1497,1978,1498,1969,1499,1964,1501,1959,1504,1951,1508,1943,1513,1935,1521,1928,1532,1919,1535,1908,1537,1899,1530,1891,1527,1888,1521,1887,1502,1882,1487,1873,1483,1871,1479,1869,1473,1865,1469,1859,1464,1853,1462,1845,1458,1834,1442,1834,1439,1830,1432,1831,1419,1833,1407,1833,1398,1834,1393,1830,1392,1829,1390,1828,1389,1827,1387,1826,1382,1822,1377,1812,1376,1810,1376,1809,1375,1807,1374,1806,1371,1804,1369,1800,1366,1792,1355,1787,1346,1784,1340,1778,1335,1774,1336,1770,1338,1765,1345,1760,1331,1759,1317,1752,1316,1751,1313,1751,1311,1751,1309,1751,1308,1751,1306,1751L1293,1752Q1291,1752,1288,1753,1279,1754,1278,1768,1277,1779,1271,1783,1270,1784,1268,1784,1263,1782,1260,1777,1259,1774,1257,1771,1251,1759,1244,1748,1241,1742,1232,1745,1223,1747,1215,1749,1199,1754,1183,1757,1171,1760,1171,1775,1171,1776,1170,1778,1169,1782,1165,1785,1161,1788,1159,1792,1158,1794,1157,1796,1156,1799,1154,1800,1158,1806,1160,1812,1163,1820,1157,1829,1136,1870,1109,1907,1108,1909,1106,1911,1105,1912,1106,1914,1107,1924,1114,1929,1116,1930,1117,1932,1124,1940,1124,1953,1124,1970,1123,1987,1123,1990,1121,1991,1111,2000,1104,2010,1094,2023,1087,2037,1084,2043,1084,2049,1083,2055,1081,2057,1080,2058,1080,2060,1079,2062,1078,2063,1077,2065,1075,2067,1069,2081,1068,2095,1068,2107,1071,2120,1073,2128,1071,2135,1063,2154,1061,2173,1059,2190,1063,2207,1066,2219,1069,2231,1073,2242,1080,2251,1087,2262,1088,2271,1088,2297,1079,2323,1075,2336,1069,2348,1065,2359,1076,2359,1077,2359,1078,2360,1080,2361,1083,2362,1081,2369,1078,2376,1072,2388,1064,2396,1063,2397,1063,2398,1059,2405,1056,2412,1053,2419,1055,2429,1059,2446,1064,2463,1066,2469,1067,2476,1067,2478,1068,2479L1062,2520Q1062,2525,1065,2528,1066,2530,1067,2534L1067,2535Q1069,2545,1068,2551L1058,2561Q1058,2592,1056,2604,1054,2615,1054,2637,1054,2639,1054,2663,1054,2669,1059,2672,1063,2675,1064,2681,1064,2692,1057,2695,1057,2698,1055,2711,1054,2721,1055,2723,1055,2723,1059,2735,1061,2735,1064,2736L1064,2754Q1073,2773,1071,2787,1072,2787,1080,2787,1086,2787,1084,2793,1086,2792,1089,2794L1089,2802,1084,2802,1084,2805,1072,2805,1072,2811,1077,2811,1077,2814,1085,2814,1085,2821,1088,2821,1088,2826Q1082,2827,1083,2835,1083,2839,1084,2844,1084,2860,1085,2862,1086,2865,1089,2868,1091,2869,1091,2875L1091,2882Q1092,2884,1085,2887,1085,2888,1085,2894,1086,2898,1082,2899,1080,2903,1080,2915,1079,2925,1072,2924L1072,2933Q1077,2934,1077,2942,1077,2947,1077,2954L1078,2972Q1077,2977,1074,2979,1074,2980,1073,2981,1072,2983,1072,2989L1068,2989,1068,2999Q1068,3000,1065,3001,1063,3002,1063,3004L1063,3042Q1063,3045,1065,3048,1067,3051,1067,3056L1071,3056,1071,3059,1074,3059,1074,3050,1095,3050,1095,3064,1099,3064,1099,3082Q1099,3083,1100,3084,1102,3084,1102,3087L1102,3096,1106,3096,1106,3102Q1108,3101,1144,3103,1145,3103,1147,3104,1154,3104,1155,3103L1155,3100Q1183,3099,1186,3099L1186,3103,1191,3103,1194,3109,1208,3109,1208,3101,1203,3098Q1201,3098,1191,3082L1182,3082,1182,3078,1187,3078,1187,3063Q1180,3062,1183,3055L1177,3055,1177,3049Q1181,3048,1181,3040,1181,3031,1183,3030,1188,3028,1191,3026,1192,3023,1193,3022,1194,3019,1197,3020L1197,3013,1194,3013,1194,3010,1191,3010,1191,3005,1195,3005Q1195,3005,1195,3008,1195,3009,1198,3010L1198,3015,1211,3015Q1211,3010,1211,3008,1211,3004,1218,3004L1218,2974Q1218,2968,1226,2961,1234,2954,1252,2938,1269,2923,1265,2910,1265,2908,1268,2906,1269,2899,1269,2897,1268,2894,1267,2893,1265,2891,1265,2887,1246,2888,1241,2886,1236,2884,1235,2884,1234,2883,1226,2876,1219,2869,1217,2865,1212,2863,1212,2859,1211,2855,1207,2852,1207,2852,1207,2852L1207,2847Q1221,2824,1222,2820,1222,2815,1232,2809,1241,2803,1248,2803,1254,2803,1266,2800L1266,2784Q1265,2783,1273,2783,1272,2755,1274,2743,1278,2722,1297,2720L1297,2714,1291,2714,1291,2711,1278,2711,1278,2702,1285,2702,1285,2697,1298,2697Q1299,2698,1299,2704,1299,2708,1302,2711L1312,2711Q1311,2706,1315,2705,1317,2705,1322,2705L1322,2687Q1319,2688,1320,2685,1320,2679,1321,2677L1306,2677,1306,2681,1299,2681,1299,2685,1304,2685,1304,2689Q1303,2688,1300,2688L1300,2692,1290,2692,1290,2684,1282,2684,1282,2678,1275,2678,1275,2648,1269,2648,1269,2626Q1269,2625,1269,2625,1269,2622,1270,2621L1280,2621,1280,2628Q1285,2626,1289,2630,1292,2634,1298,2632L1298,2636Q1299,2636,1304,2635,1309,2635,1311,2640L1336,2640,1336,2635,1341,2635,1341,2630Q1344,2629,1353,2630,1360,2629,1358,2622L1362,2622Q1361,2620,1361,2613L1356,2613,1356,2588,1360,2588,1360,2581Q1365,2584,1366,2573,1366,2565,1365,2564,1362,2563,1356,2558L1359,2490Q1362,2490,1365,2490,1374,2490,1384,2490,1420,2491,1455,2479,1467,2475,1480,2477,1484,2477,1486,2475,1487,2474,1489,2474,1521,2476,1540,2449,1546,2442,1553,2435,1564,2423,1563,2401,1563,2381,1557,2369,1554,2365,1551,2362,1546,2357,1544,2350,1541,2341,1540,2330,1533,2319,1524,2316,1520,2314,1518,2311L1518,2310Q1513,2311,1512,2311,1503,2312,1499,2304,1498,2303,1498,2300,1495,2288,1498,2278,1507,2255,1507,2229,1508,2186,1528,2148,1539,2127,1553,2107,1551,2106,1550,2105,1549,2092,1555,2080,1564,2065,1573,2051,1576,2046,1583,2040,1586,2036,1591,2034,1594,2033,1597,2031,1630,2009,1667,1987,1668,1986,1670,1985,1677,1981,1681,1976,1682,1975,1683,1973,1691,1962,1692,1948,1693,1932,1683,1928,1677,1925,1670,1922,1668,1922,1668,1921,1662,1926,1662,1932Q1662,1936,1661,1939Z" stroke="#333333" fill="#3459a3" style="fill: rgb(52, 89, 163); stroke: rgb(51, 51, 51); stroke-opacity: 1; fill-opacity: 1;"></path><path fill-opacity="1" stroke-width="8.940217391304348" stroke-opacity="1" transform="matrix(1,0,0,1,0,0)" d="M1265,3186Q1255,3183,1252,3179,1250,3176,1246,3176,1241,3176,1238,3174,1235,3171,1228,3163,1221,3155,1221,3151,1220,3143,1211,3144L1211,3168Q1212,3173,1212,3178,1212,3181,1212,3189,1212,3193,1212,3198,1212,3202,1217,3203L1217,3210,1221,3210,1221,3207,1231,3207Q1232,3211,1235,3211L1244,3211Q1254,3211,1255,3210L1267,3210,1267,3223,1271,3223,1271,3215,1274,3215Q1273,3212,1277,3209,1280,3205,1283,3209L1298,3209,1298,3207Q1302,3206,1303,3206,1304,3206,1304,3203,1304,3198,1300,3198,1294,3199,1289,3199,1282,3199,1277,3192,1271,3191,1269,3190Q1266,3187,1265,3186Z" stroke="#333333" fill="#3459a3" style="fill: rgb(52, 89, 163); stroke: rgb(51, 51, 51); stroke-opacity: 1; fill-opacity: 1;"></path><path fill-opacity="1" stroke-width="8.940217391304348" stroke-opacity="1" transform="matrix(1,0,0,1,0,0)" d="M244,918L260,918,260,909,270,909,270,890,263,889,263,901,244,901Z" stroke="#333333" fill="#d7f4ff" style="fill: rgb(215, 244, 255); stroke: rgb(51, 51, 51); stroke-opacity: 1; fill-opacity: 1;"></path><path fill-opacity="1" stroke-width="8.940217391304348" stroke-opacity="1" transform="matrix(1,0,0,1,0,0)" d="M188,881L163,881Q165,894,157,892L157,910,188,910Z" stroke="#333333" fill="#d7f4ff" style="fill: rgb(215, 244, 255); stroke: rgb(51, 51, 51); stroke-opacity: 1; fill-opacity: 1;"></path><path fill-opacity="1" stroke-width="8.940217391304348" stroke-opacity="1" transform="matrix(1,0,0,1,0,0)" d="M44,839L44,859,53,859,53,865,73,865,73,880Q75,880,77,881L77,845,73,845,73,828,61,828Q62,831,63,839Z" stroke="#333333" fill="#d7f4ff" style="fill: rgb(215, 244, 255); stroke: rgb(51, 51, 51); stroke-opacity: 1; fill-opacity: 1;"></path><path fill-opacity="1" stroke-width="8.940217391304348" stroke-opacity="1" transform="matrix(1,0,0,1,0,0)" d="M46,881L46,900,53,900,53,910,60,910,60,901,65,901,65,886Q62,885,62,881Z" stroke="#333333" fill="#d7f4ff" style="fill: rgb(215, 244, 255); stroke: rgb(51, 51, 51); stroke-opacity: 1; fill-opacity: 1;"></path><path fill-opacity="1" stroke-width="8.940217391304348" stroke-opacity="1" transform="matrix(1,0,0,1,0,0)" d="M140,880L140,859,120,859,120,867,114,867Q114,876,115,880Z" stroke="#333333" fill="#d7f4ff" style="fill: rgb(215, 244, 255); stroke: rgb(51, 51, 51); stroke-opacity: 1; fill-opacity: 1;"></path><path fill-opacity="1" stroke-width="8.940217391304348" stroke-opacity="1" transform="matrix(1,0,0,1,0,0)" d="M87,887Q93,901,83,909,66,922,66,923L66,957,101,957Q100,956,103,953,106,952,106,940L118,940,118,912,106,912,106,887Q96,891,95,884,96,876,95,873L87,873Z" stroke="#333333" fill="#d7f4ff" style="fill: rgb(215, 244, 255); stroke: rgb(51, 51, 51); stroke-opacity: 1; fill-opacity: 1;"></path><path fill-opacity="1" stroke-width="8.940217391304348" stroke-opacity="1" transform="matrix(1,0,0,1,0,0)" d="M1872,3201Q1871,3196,1867,3195L1862,3190,1844,3190Q1845,3191,1844,3193,1848,3192,1851,3201,1852,3203,1856,3203,1860,3203,1862,3205,1865,3211,1870,3212,1876,3215,1879,3220,1881,3223,1887,3229,1891,3234,1890,3241,1889,3249,1897,3249,1901,3250,1901,3239,1901,3230,1900,3229,1898,3226,1897,3222,1898,3216,1892,3216,1886,3216,1885,3213,1885,3206,1883,3205Q1875,3200,1872,3201Z" stroke="#333333" fill="#d7f4ff" style="fill: rgb(215, 244, 255); stroke: rgb(51, 51, 51); stroke-opacity: 1; fill-opacity: 1;"></path></g><g style="" transform="matrix(1,0,0,1,601.5,191.5)" class="fusioncharts-legend"><text stroke="none" font-size="13px" text-anchor="start" fill="#555555" y="6" x="26" class="fusioncharts-legenditem" style="fill: rgb(85, 85, 85); text-anchor: start; cursor: pointer; font-size: 13px; stroke: none;"><tspan x="26" dy="12.300000190734863">SymbianOS</tspan></text><path fill-opacity="1" opacity="1" fill="url('#8-90-rgba_52_89_163_1__0-rgba_52_89_163_1__70-rgba_174_189_218_1__100-rgba_52_89_163_1_-rgba_52_89_163_1_')" stroke="#859bc8" stroke-width="0.5" d="M7,7L21,7L21,21L7,21Z" style="stroke: rgb(133, 155, 200); opacity: 1; fill-opacity: 1; cursor: pointer;"></path><rect stroke="none" stroke-width="1" fill="#c0c0c0" fill-opacity="0.000001" ry="0" rx="0" height="20" width="103" y="4" x="4" style="fill-opacity: 0.000001; fill: rgb(192, 192, 192); stroke: none; cursor: pointer;"></rect><text stroke="none" font-size="13px" text-anchor="start" fill="#555555" y="26" x="26" class="fusioncharts-legenditem" style="fill: rgb(85, 85, 85); text-anchor: start; cursor: pointer; font-size: 13px; stroke: none;"><tspan x="26" dy="12.300000190734863">BlackBerry OS</tspan></text><path fill-opacity="1" opacity="1" fill="url('#8-90-rgba_73_118_6_1__0-rgba_73_118_6_1__70-rgba_182_200_156_1__100-rgba_73_118_6_1_-rgba_73_118_6_1_')" stroke="#92ad6a" stroke-width="0.5" d="M7,27L21,27L21,41L7,41Z" style="stroke: rgb(146, 173, 106); opacity: 1; fill-opacity: 1; cursor: pointer;"></path><rect stroke="none" stroke-width="1" fill="#c0c0c0" fill-opacity="0.000001" ry="0" rx="0" height="20" width="121" y="24" x="4" style="fill-opacity: 0.000001; fill: rgb(192, 192, 192); stroke: none; cursor: pointer;"></rect><text stroke="none" font-size="13px" text-anchor="start" fill="#555555" y="46" x="26" class="fusioncharts-legenditem" style="fill: rgb(85, 85, 85); text-anchor: start; cursor: pointer; font-size: 13px; stroke: none;"><tspan x="26" dy="12.299999237060547">Sony Ericsson</tspan></text><path fill-opacity="1" opacity="1" fill="url('#8-90-rgba_172_224_47_1__0-rgba_172_224_47_1__70-rgba_222_243_172_1__100-rgba_172_224_47_1_-rgba_172_224_47_1_')" stroke="#cdec82" stroke-width="0.5" d="M7,47L21,47L21,61L7,61Z" style="stroke: rgb(205, 236, 130); opacity: 1; fill-opacity: 1; cursor: pointer;"></path><rect stroke="none" stroke-width="1" fill="#c0c0c0" fill-opacity="0.000001" ry="0" rx="0" height="20" width="118" y="44" x="4" style="fill-opacity: 0.000001; fill: rgb(192, 192, 192); stroke: none; cursor: pointer;"></rect><text stroke="none" font-size="13px" text-anchor="start" fill="#555555" y="66" x="26" class="fusioncharts-legenditem" style="fill: rgb(85, 85, 85); text-anchor: start; cursor: pointer; font-size: 13px; stroke: none;"><tspan x="26" dy="12.299999237060547">iOS</tspan></text><path fill-opacity="1" opacity="1" fill="url('#8-90-rgba_128_130_124_1__0-rgba_128_130_124_1__70-rgba_204_205_203_1__100-rgba_128_130_124_1_-rgba_128_130_124_1_')" stroke="#b3b4b0" stroke-width="0.5" d="M7,67L21,67L21,81L7,81Z" style="stroke: rgb(179, 180, 176); opacity: 1; fill-opacity: 1; cursor: pointer;"></path><rect stroke="none" stroke-width="1" fill="#c0c0c0" fill-opacity="0.000001" ry="0" rx="0" height="20" width="50" y="64" x="4" style="fill-opacity: 0.000001; fill: rgb(192, 192, 192); stroke: none; cursor: pointer;"></rect></g><g class="raphael-group-111-caption"><text font-weight="bold" font-size="14px" font-family="Verdana, sans" stroke="none" text-anchor="middle" y="11" x="361" fill="#555555" class="fusioncharts-caption" style="fill: rgb(85, 85, 85); text-anchor: middle; stroke: none; font-family: Verdana,sans; font-size: 14px; font-weight: bold;"><tspan x="361" dy="12.899999618530273">StatCounter Global Stats</tspan></text><text font-weight="bold" font-size="11px" font-family="Verdana, sans" stroke="none" text-anchor="middle" y="30" x="361" fill="#555555" class="fusioncharts-subcaption" style="fill: rgb(85, 85, 85); text-anchor: middle; stroke: none; font-family: Verdana,sans; font-size: 11px; font-weight: bold;"><tspan x="361" dy="10.600000381469727">Top Mobile Operating Systems Per Country in South America, Oct 2010</tspan></text></g></svg>
